# xmcd CD database file
#
# Track frame offsets:
#	150
#	16171
#	26053
#	41444
#	59366
#	68767
#	80784
#	89288
#	102922
#	116481
#	126255
#	141558
#	152539
#	167792
#	179548
#	188750
#	199401
#	206902
#	220378
#	234735
#	247170
#	258576
#	272777
#	285802
#	303342
#	316519
#	328721
#
# Disc length: 4618 seconds
#
# Revision: 4
# Processed by: cddbd v1.5.2PL0 Copyright (c) Steve Scherf et al.
# Submitted via: CDex 1.70beta2
#
DISCID=9312081b
DTITLE=Michal Tučný - No. 55 [CD1]
DYEAR=2002
DGENRE=Country
TTITLE0=Báječná ženská
TTITLE1=Cesty toulavý
TTITLE2=Jak chcete žít bez koní
TTITLE3=Všichni jsou už v Mexiku
TTITLE4=Blues Folsomské věznice
TTITLE5=Rád se brouzdám rosou
TTITLE6=Děláme co můžem
TTITLE7=Blízko Littel Big Hornu
TTITLE8=Medicinman
TTITLE9=Já budu žít navěky
TTITLE10=El Paso
TTITLE11=Waterloo
TTITLE12=Starý dobrý western
TTITLE13=Poslední kovboj
TTITLE14=Tenhle druh písní
TTITLE15=Sundej z hodin závaží
TTITLE16=Šlapej dál
TTITLE17=Kosmickej vandr
TTITLE18=Tři kamarádi
TTITLE19=Ještě dlouhou cestu mám
TTITLE20=Až přijde ten den
TTITLE21=Koukám, jak celá země vstává
TTITLE22=Viva Las Vegas
TTITLE23=Starýho psa novým kouskům nenaučíš
TTITLE24=Vánek s vůní burčáku
TTITLE25=Jižanský rok
TTITLE26=Len Chcieť/Vždyť víš
EXTD=YEAR: 2002
EXTT0=
EXTT1=
EXTT2=
EXTT3=
EXTT4=
EXTT5=
EXTT6=
EXTT7=
EXTT8=
EXTT9=
EXTT10=
EXTT11=
EXTT12=
EXTT13=
EXTT14=
EXTT15=
EXTT16=
EXTT17=
EXTT18=
EXTT19=
EXTT20=
EXTT21=
EXTT22=
EXTT23=
EXTT24=
EXTT25=
EXTT26=
PLAYORDER=
